<?xml version="1.0" encoding="UTF-8"?>
<svg width="462px" height="575px" viewBox="0 0 462 575" version="1.1" xmlns="http://www.w3.org/2000/svg" xmlns:xlink="http://www.w3.org/1999/xlink">
    <title>atoms/illustrations/letters/a-il-letter-a</title>
    <g id="Desktop" stroke="none" stroke-width="1" fill="none" fill-rule="evenodd" opacity="0.800000012">
        <g id="Desktop-works-v2" transform="translate(-536.000000, -4489.000000)" stroke="#957AE4">
            <g id="slide-architects" transform="translate(-234.000000, 4489.000000)">
                <g id="Group" transform="translate(770.000000, 0.000000)">
                    <g id="A" transform="translate(1.000000, -0.000000)">
                        <line x1="2.38341969" y1="290.777202" x2="400.173576" y2="521.82897" id="Path-6" stroke-width="1.19170984" stroke-dasharray="4.766839378238342"></line>
                        <line x1="61.9689119" y1="266.943005" x2="460" y2="498.134715" id="Path-6" stroke-width="1.19170984" stroke-dasharray="4.766839378238342"></line>
                        <line x1="5.68434189e-13" y1="47.6683938" x2="395.647668" y2="277.668394" id="Path-6" stroke-width="1.19170984" stroke-dasharray="4.766839378238342"></line>
                        <line x1="115.595855" y1="33.3678756" x2="115.595855" y2="493.366544" id="Path-6" stroke-width="1.19170984" stroke-dasharray="4.766839378238342"></line>
                        <line x1="160.880829" y1="2.77998958e-13" x2="160.880829" y2="459.998668" id="Path-6" stroke-width="1.19170984" stroke-dasharray="4.766839378238342"></line>
                        <line x1="59.5854922" y1="23.8341969" x2="455.230961" y2="253.832918" id="Path-6" stroke-width="1.19170984" stroke-dasharray="4.766839378238342"></line>
                        <line x1="299.119171" y1="114.404145" x2="299.119171" y2="574.402813" id="Path-6" stroke-width="1.19170984" stroke-dasharray="4.766839378238342"></line>
                        <line x1="344.404145" y1="76.2694301" x2="344.404145" y2="536.268098" id="Path-6" stroke-width="1.19170984" stroke-dasharray="4.766839378238342"></line>
                        <path d="M202.648835,331.569186 C197.213703,342.790153 183.98348,341.050523 173.053013,327.688839 C162.180342,314.343767 157.773478,294.467372 163.20861,283.260645 L232.921338,139.673564 C236.651519,131.984069 244.290083,130.128148 252.641451,134.879496 C260.992818,139.633218 268.626565,150.173048 272.361563,162.110751 L342.0767,387.401166 C347.511831,404.787969 343.393432,418.511185 332.487047,419.481865 C329.40465,419.747675 325.15711,419.032686 321.761658,417.098446 C313.484942,412.389817 306.407594,402.896448 302.636475,390.842453 L252.641451,228.605897 L202.648835,331.569186 Z" id="Fill-1" stroke-width="1.19170984" stroke-dasharray="4.766839378238342"></path>
                        <path d="M218.59223,298.732647 C215.049253,306.029656 209.734788,316.975169 202.648835,331.569186 C201.17077,334.620686 199.116222,336.713689 196.688214,337.875113" id="Path" stroke-width="2.38341969" stroke-linecap="round" stroke-linejoin="round"></path>
                        <path d="M236.308528,135.093571 C240.426404,131.4716 246.330397,131.288945 252.641451,134.879496 C260.992818,139.633218 268.626565,150.173048 272.361563,162.110751 L342.0767,387.401166 C347.087813,403.431548 343.977876,416.34767 334.914359,419.026154" id="Path" stroke-width="2.38341969" stroke-linecap="round" stroke-linejoin="round"></path>
                        <path d="M157.36386,364.937061 C151.928729,376.158028 138.698506,374.418399 127.768039,361.056714 C116.895367,347.711643 112.488504,327.835248 117.923636,316.628521 L187.636364,173.04144 C191.366545,165.351945 199.005109,163.496023 207.356476,168.247372 C215.707844,173.001094 223.341591,183.540923 227.076589,195.478627 L296.791725,420.769042 C302.226857,438.155845 298.108458,451.879061 287.202073,452.849741 C284.119676,453.115551 279.872136,452.400562 276.476684,450.466321 C268.199968,445.757692 261.12262,436.264324 257.351501,424.210328 L207.356476,261.973773 L157.36386,364.937061 Z" id="Fill-1" stroke-width="2.38341969" stroke-linecap="round" stroke-linejoin="round"></path>
                        <line x1="237.150259" y1="134.663212" x2="193.056995" y2="166.839378" id="Path-8" stroke-width="2.38341969" stroke-linecap="round" stroke-linejoin="round"></line>
                        <line x1="160.880829" y1="287.202073" x2="116.787565" y2="319.378238" id="Path-8" stroke-width="1.19170984" stroke-dasharray="4.766839378238342"></line>
                        <line x1="168.031088" y1="320.569948" x2="123.937824" y2="352.746114" id="Path-8" stroke-width="1.19170984" stroke-dasharray="4.766839378238342"></line>
                        <line x1="256.217617" y1="138.238342" x2="212.124352" y2="170.414508" id="Path-8" stroke-width="2.38341969" stroke-linecap="round" stroke-linejoin="round"></line>
                        <line x1="268.134715" y1="154.92228" x2="224.041451" y2="187.098446" id="Path-8" stroke-width="2.38341969" stroke-linecap="round" stroke-linejoin="round"></line>
                        <line x1="334.870466" y1="419.481865" x2="290.777202" y2="451.658031" id="Path-8" stroke-width="2.38341969" stroke-linecap="round" stroke-linejoin="round"></line>
                        <line x1="344.404145" y1="398.031088" x2="300.310881" y2="430.207254" id="Path-8" stroke-width="2.38341969" stroke-linecap="round" stroke-linejoin="round"></line>
                        <line x1="306.26943" y1="400.414508" x2="262.176166" y2="432.590674" id="Path-8" stroke-width="1.19170984" stroke-dasharray="4.766839378238342"></line>
                        <line x1="197.823834" y1="337.253886" x2="152.53886" y2="370.621762" id="Path-8" stroke-width="2.38341969" stroke-linecap="round" stroke-linejoin="round"></line>
                        <line x1="252.642487" y1="228.80829" x2="207.357513" y2="262.176166" id="Path-8" stroke-width="1.19170984" stroke-dasharray="4.766839378238342"></line>
                    </g>
                </g>
            </g>
        </g>
    </g>
</svg>
