<?xml version="1.0" encoding="UTF-8"?>
<svg width="462px" height="575px" viewBox="0 0 462 575" version="1.1" xmlns="http://www.w3.org/2000/svg" xmlns:xlink="http://www.w3.org/1999/xlink">
    <title>atoms/illustrations/letters/a-il-letter-d</title>
    <g id="Desktop" stroke="none" stroke-width="1" fill="none" fill-rule="evenodd" opacity="0.800000012">
        <g id="Desktop-works-v2" transform="translate(-151.000000, -3425.000000)" stroke="#957AE4">
            <g id="slide-design" transform="translate(152.000000, 3425.000000)">
                <g id="D" transform="translate(0.000000, -0.000000)">
                    <line x1="2.38341969" y1="290.777202" x2="400.173576" y2="521.82897" id="Path-6" stroke-width="1.19170984" stroke-dasharray="4.766839378238342"></line>
                    <line x1="61.9689119" y1="266.943005" x2="460" y2="500.518135" id="Path-6" stroke-width="1.19170984" stroke-dasharray="4.766839378238342"></line>
                    <line x1="288.393782" y1="400.414508" x2="244.658049" y2="430.373485" id="Path-8" stroke-width="1.19170984" stroke-dasharray="4.766839378238342"></line>
                    <line x1="5.68434189e-13" y1="47.6683938" x2="395.647668" y2="277.668394" id="Path-6" stroke-width="1.19170984" stroke-dasharray="4.766839378238342"></line>
                    <line x1="115.595855" y1="33.3678756" x2="115.595855" y2="493.366544" id="Path-6" stroke-width="1.19170984" stroke-dasharray="4.766839378238342"></line>
                    <line x1="160.880829" y1="2.77998958e-13" x2="160.880829" y2="459.998668" id="Path-6" stroke-width="1.19170984" stroke-dasharray="4.766839378238342"></line>
                    <line x1="57.2020725" y1="23.8341969" x2="452.847542" y2="253.832918" id="Path-6" stroke-width="1.19170984" stroke-dasharray="4.766839378238342"></line>
                    <line x1="160.880829" y1="120.362694" x2="115.595855" y2="151.34715" id="Path-8" stroke-width="1.19170984" stroke-dasharray="4.766839378238342"></line>
                    <line x1="206.165803" y1="168.031088" x2="160.880829" y2="199.015544" id="Path-8" stroke-width="1.19170984" stroke-dasharray="4.766839378238342"></line>
                    <line x1="291.968912" y1="225.233161" x2="246.683938" y2="256.217617" id="Path-8" stroke-width="1.19170984" stroke-dasharray="4.766839378238342"></line>
                    <line x1="299.119171" y1="249.067358" x2="253.834197" y2="280.051813" id="Path-8" stroke-width="1.19170984" stroke-dasharray="4.766839378238342"></line>
                    <line x1="275.284974" y1="208.549223" x2="230" y2="239.533679" id="Path-8" stroke-width="1.19170984" stroke-dasharray="4.766839378238342"></line>
                    <line x1="160.880829" y1="301.502591" x2="115.595855" y2="332.487047" id="Path-8" stroke-width="1.19170984" stroke-dasharray="4.766839378238342"></line>
                    <line x1="179.948187" y1="337.253886" x2="134.663212" y2="368.238342" id="Path-8" stroke-width="1.19170984" stroke-dasharray="4.766839378238342"></line>
                    <line x1="299.119171" y1="114.404145" x2="299.119171" y2="574.402813" id="Path-6" stroke-width="1.19170984" stroke-dasharray="4.766839378238342"></line>
                    <line x1="344.404145" y1="76.2694301" x2="344.404145" y2="536.268098" id="Path-6" stroke-width="1.19170984" stroke-dasharray="4.766839378238342"></line>
                    <path d="M160.880829,296.735751 C160.880829,313.367325 170.621169,329.649131 182.331606,337.253886 M296.623593,402.726735 C306.426103,405.176465 315.481817,403.987469 323.013905,399.63415 M169.040466,95.5230184 C163.859348,98.1375081 160.880829,104.359132 160.880829,113.212435 L160.880829,296.735751 M206.165803,294.352332 L206.165803,168.031088 M283.646699,213.425755 C291.881277,220.260965 299.119171,233.945433 299.119171,244.300518 L299.119171,325.336788 C299.119171,334.355379 292.801068,339.637306 287.202073,339.637306 C285.293242,339.637306 283.189736,339.0214 280.051813,337.253886 L206.165803,294.352332 L206.165803,294.352332" id="Shape" stroke-width="1.19170984" stroke-dasharray="4.766839378238342"></path>
                    <line x1="160.880829" y1="325.336788" x2="121.921953" y2="352.456492" id="Path-8" stroke-width="1.19170984" stroke-dasharray="4.766839378238342"></line>
                    <line x1="204.974093" y1="295.544041" x2="160.731672" y2="325.8501" id="Path-8" stroke-width="1.19170984" stroke-dasharray="4.766839378238342"></line>
                    <line x1="288.393782" y1="340.829016" x2="250.557038" y2="366.747185" id="Path-8" stroke-width="1.19170984" stroke-dasharray="4.766839378238342"></line>
                    <path d="M323.408103,399.402597 C336.130567,391.808464 344.404145,375.080502 344.404145,351.554404 L344.404145,268.134715 C344.404145,222.322889 320.131169,176.002313 284.818653,156.11399 L182.331606,96.5284974 C179.56764,94.9865624 176.646489,94.1450777 175.181347,94.1450777 C172.722488,94.1450777 170.530988,94.6904248 168.64673,95.7309802" id="Shape" stroke-width="2.38341969" stroke-linecap="round" stroke-linejoin="round"></path>
                    <path d="M115.595855,327.720207 C115.595855,344.351781 125.336195,360.633587 137.046632,368.238342 L237.150259,427.823834 C270.079355,446.829355 299.119171,426.614653 299.119171,382.53886 L299.119171,299.119171 C299.119171,253.307345 274.846195,206.986769 239.533679,187.098446 L137.046632,127.512953 C134.282666,125.971018 131.361515,125.129534 129.896373,125.129534 C120.993686,125.129534 115.595855,132.278578 115.595855,144.196891 L115.595855,327.720207 Z M160.880829,325.336788 L160.880829,199.015544 L234.766839,241.917098 C244.36553,247.241801 253.834197,263.44115 253.834197,275.284974 L253.834197,356.321244 C253.834197,365.339835 247.516094,370.621762 241.917098,370.621762 C240.008268,370.621762 237.904762,370.005856 234.766839,368.238342 L160.880829,325.336788 Z" id="Clip-2" stroke-width="2.38341969" stroke-linecap="round" stroke-linejoin="round"></path>
                    <line x1="169.222798" y1="95.3367876" x2="121.554404" y2="127.989637" id="Path-8" stroke-width="2.38341969" stroke-linecap="round" stroke-linejoin="round"></line>
                    <line x1="189.481865" y1="101.295337" x2="144.978914" y2="131.420411" id="Path-8" stroke-width="2.38341969" stroke-linecap="round" stroke-linejoin="round"></line>
                    <line x1="326.528497" y1="202.590674" x2="282.792764" y2="232.549651" id="Path-8" stroke-width="2.38341969" stroke-linecap="round" stroke-linejoin="round"></line>
                    <line x1="343.212435" y1="252.642487" x2="299.476702" y2="282.601464" id="Path-8" stroke-width="2.38341969" stroke-linecap="round" stroke-linejoin="round"></line>
                    <line x1="343.212435" y1="364.663212" x2="299.476702" y2="394.62219" id="Path-8" stroke-width="2.38341969" stroke-linecap="round" stroke-linejoin="round"></line>
                    <line x1="297.927461" y1="166.839378" x2="254.191728" y2="196.798356" id="Path-8" stroke-width="2.38341969" stroke-linecap="round" stroke-linejoin="round"></line>
                    <line x1="324.145078" y1="399.222798" x2="278.860104" y2="430.207254" id="Path-8" stroke-width="2.38341969" stroke-linecap="round" stroke-linejoin="round"></line>
                </g>
            </g>
        </g>
    </g>
</svg>
