<?xml version="1.0" encoding="UTF-8"?>
<svg width="40px" height="40px" viewBox="0 0 40 40" version="1.1" xmlns="http://www.w3.org/2000/svg" xmlns:xlink="http://www.w3.org/1999/xlink">
    <!-- Generator: Sketch 64 (93537) - https://sketch.com -->
    <title>google-podcasts</title>
    <desc>Created with Sketch.</desc>
    <g id="Page-1" stroke="none" stroke-width="1" fill="none" fill-rule="evenodd">
        <g id="Desktop" transform="translate(-312.000000, -628.000000)" fill-rule="nonzero">
            <g id="logos" transform="translate(152.000000, 628.000000)">
                <g id="google-podcasts" transform="translate(160.000000, 0.000000)">
                    <path d="M5,18.6363281 L5,21.3636719 C5,22.744375 3.88070312,23.8636719 2.5,23.8636719 C1.11929687,23.8636719 0,22.744375 0,21.3636719 L0,18.6363281 C0,17.255625 1.11929687,16.1363281 2.5,16.1363281 C3.88070312,16.1363281 5,17.255625 5,18.6363281 Z" id="Path" fill="#0066D9"></path>
                    <path d="M35.0010156,18.7074219 C35.0003463,18.6837298 35,18.6600296 35,18.6363281 C35,17.255625 36.1192969,16.1363281 37.5,16.1363281 C38.8807031,16.1363281 40,17.255625 40,18.6363281 C40,18.6600781 39.9996875,18.6838281 39.9989844,18.7074219 L40,18.7074219 L40,21.4346875 L39.9989844,21.4346875 C39.9614844,22.7825 38.8569531,23.8635937 37.5,23.8635937 C36.1430469,23.8635937 35.0385937,22.7825 35.0010156,21.4346875 L35,21.4346875 L35,18.7073437 L35.0010156,18.7073437 L35.0010156,18.7074219 Z" id="Path" fill="#4285F4"></path>
                    <path d="M13.6363281,26.8182031 L13.6363281,29.5454687 C13.6363281,30.9261719 12.5171094,32.0454687 11.1363281,32.0454687 C9.75554687,32.0454687 8.63632812,30.9261719 8.63632812,29.5454687 L8.63632812,26.818125 C8.63632812,25.4375 9.755625,24.318125 11.1363281,24.318125 C12.5170312,24.318125 13.6363281,25.4375 13.6363281,26.818125 L13.6363281,26.8182031 Z M13.6363281,10.4545312 L13.6363281,19.375 L13.6357031,19.375 C13.6055469,20.7294531 12.4980469,21.8182031 11.1363281,21.8182031 C9.77460937,21.8182031 8.6671875,20.7294531 8.63703125,19.375 L8.63632812,19.375 L8.63632812,10.4545312 C8.63632812,9.07382812 9.755625,7.95453125 11.1363281,7.95453125 C12.5170313,7.95453125 13.6363281,9.07382812 13.6363281,10.4545312 L13.6363281,10.4545312 Z" id="Shape" fill="#EA4335"></path>
                    <path d="M26.3636719,13.1817969 C26.3636719,14.5625 27.4828906,15.6817969 28.8636719,15.6817969 C30.2444531,15.6817969 31.3636719,14.5625 31.3636719,13.1817969 L31.3636719,10.4545313 C31.3636719,9.07382813 30.244375,7.95453125 28.8636719,7.95453125 C27.4829688,7.95453125 26.3636719,9.07382813 26.3636719,10.4545313 L26.3636719,13.1817969 Z" id="Path" fill="#34A853"></path>
                    <path d="M17.5,5.22734375 C17.5,6.60796875 18.6192969,7.72734375 20,7.72734375 C21.3807031,7.72734375 22.5,6.60796875 22.5,5.22734375 L22.5,2.5 C22.5,1.11929687 21.3807031,0 20,0 C18.6192969,0 17.5,1.11929687 17.5,2.5 L17.5,5.22734375 Z M17.5,34.7726562 C17.5,33.3920312 18.6192969,32.2726562 20,32.2726562 C21.3807031,32.2726562 22.5,33.3920312 22.5,34.7726562 L22.5,37.5 C22.5,38.8807031 21.3807031,40 20,40 C18.6192969,40 17.5,38.8807031 17.5,37.5 L17.5,34.7726562 Z" id="Shape" fill="#FAB908"></path>
                    <path d="M26.3636719,20.6817969 C26.3636719,19.3010937 27.4828906,18.1817969 28.8636719,18.1817969 C30.2444531,18.1817969 31.3636719,19.3010937 31.3636719,20.6817969 L31.3636719,29.5454687 C31.3636719,30.9261719 30.244375,32.0454687 28.8636719,32.0454687 C27.4829688,32.0454687 26.3636719,30.9261719 26.3636719,29.5454687 L26.3636719,20.6817969 Z" id="Path" fill="#34A853"></path>
                    <path d="M22.5,12.7273437 L22.5,27.2726563 C22.5,28.6534375 21.3807031,29.7726563 20,29.7726563 C18.6192969,29.7726563 17.5,28.6534375 17.5,27.2726563 L17.5,12.7273437 C17.5,11.3465625 18.6192969,10.2273437 20,10.2273437 C21.3807031,10.2273437 22.5,11.3465625 22.5,12.7273437 Z" id="Path" fill="#FAB908"></path>
                </g>
            </g>
        </g>
    </g>
</svg>