<?xml version="1.0" encoding="UTF-8"?>
<svg width="40px" height="40px" viewBox="0 0 40 40" version="1.1" xmlns="http://www.w3.org/2000/svg" xmlns:xlink="http://www.w3.org/1999/xlink">
    <!-- Generator: Sketch 64 (93537) - https://sketch.com -->
    <title>itunes-podcasts</title>
    <desc>Created with Sketch.</desc>
    <defs>
        <linearGradient x1="49.8966667%" y1="101.27%" x2="49.05%" y2="0%" id="linearGradient-1">
            <stop stop-color="#822CBE" offset="0%"></stop>
            <stop stop-color="#D772FB" offset="100%"></stop>
        </linearGradient>
    </defs>
    <g id="Page-1" stroke="none" stroke-width="1" fill="none" fill-rule="evenodd">
        <g id="Desktop" transform="translate(-232.000000, -628.000000)" fill-rule="nonzero">
            <g id="logos" transform="translate(152.000000, 628.000000)">
                <g id="itunes-podcasts" transform="translate(80.000000, 0.000000)">
                    <rect id="Rectangle" fill="url(#linearGradient-1)" x="0" y="0" width="40" height="40" rx="8"></rect>
                    <path d="M18.7786667,35.0186667 C17.5853333,34.592 17.3293333,34.012 16.84,30.6133333 C16.2706667,26.6626667 16.1466667,24.2173333 16.476,23.4426667 C16.9133333,22.416 18.1,21.8333333 19.76,21.8266106 C21.4066667,21.82 22.604,22.408 23.044,23.4426667 C23.3746667,24.216 23.2506667,26.6626667 22.6813333,30.6133333 C22.2946667,33.3733333 22.0813333,34.0706667 21.548,34.54 C20.8146667,35.1893333 19.7746667,35.3693333 18.788,35.02 L18.7786667,35.0186667 Z M13.6813333,30.9653333 C9.56133333,28.9386667 6.92133333,25.5093333 5.96133333,20.9466667 C5.72133333,19.7693333 5.68133333,16.96 5.908,15.88 C6.508,12.98 7.65466667,10.712 9.56133333,8.70666667 C12.308,5.81066667 15.8413333,4.28 19.7746667,4.28 C23.668,4.28 27.188,5.78266667 29.868,8.592 C31.908,10.712 33.0546667,12.956 33.6413333,15.912 C33.8413333,16.896 33.8413333,19.5786667 33.6546667,20.6853333 C33.0413333,24.184 31.0946667,27.3706667 28.2546667,29.512 C27.2413333,30.2773333 24.7613333,31.6133333 24.3613333,31.6133333 C24.2146667,31.6133333 24.2013333,31.4613333 24.268,30.8466667 C24.388,29.86 24.508,29.6546667 25.068,29.42 C25.9613333,29.0466667 27.4813333,27.964 28.4146667,27.028 C30.028,25.428 31.2146667,23.3346667 31.7613333,21.1346667 C32.108,19.7613333 32.068,16.708 31.6813333,15.2946667 C30.468,10.8013333 26.8013333,7.308 22.308,6.37466667 C21.0013333,6.108 18.628,6.108 17.308,6.37466667 C12.7613333,7.308 9.00133333,10.9746667 7.85466667,15.588 C7.548,16.8413333 7.548,19.8946667 7.85466667,21.148 C8.61466667,24.2013333 10.588,27.0013333 13.1746667,28.668 C13.6813333,29.0013333 14.2946667,29.348 14.548,29.4546667 C15.108,29.6946667 15.228,29.8946667 15.3346667,30.8813333 C15.4013333,31.4813333 15.388,31.6546667 15.2413333,31.6546667 C15.148,31.6546667 14.468,31.3613333 13.748,31.0146667 L13.6813333,30.9653333 Z M13.7346667,25.5413333 C12.348,24.4346667 11.1213333,22.472 10.6146667,20.5466667 C10.308,19.384 10.308,17.1733333 10.628,16.0133333 C11.468,12.8826667 13.7746667,10.456 16.9746667,9.316 C18.068,8.92933333 20.4946667,8.84266667 21.8413333,9.14 C26.4813333,10.1733333 29.7746667,14.82 29.1346667,19.4293333 C28.8813333,21.2866667 28.2413333,22.812 27.108,24.2293333 C26.548,24.9453333 25.188,26.1466667 24.948,26.1466667 C24.908,26.1466667 24.868,25.6933333 24.868,25.1413333 L24.868,24.1333333 L25.5613333,23.3066667 C28.1746667,20.176 27.988,15.8026667 25.1346667,12.9333333 C24.028,11.816 22.748,11.16 21.0946667,10.8573333 C20.028,10.66 19.8013333,10.66 18.6813333,10.844 C16.9813333,11.1213333 15.664,11.78 14.4946667,12.9373333 C11.628,15.7773333 11.4413333,20.1733333 14.0546667,23.3066667 L14.7426667,24.1333333 L14.7426667,25.1466667 C14.7426667,25.7066667 14.6986667,26.16 14.644,26.16 C14.5906667,26.16 14.204,25.8933333 13.7906667,25.56 L13.7346667,25.5413333 Z M18.3613333,20.0973333 C17.1746667,19.5453333 16.5346667,18.504 16.5213333,17.1466667 C16.5213333,15.9266667 17.2013333,14.8626667 18.3746667,14.24 C19.1213333,13.848 20.4413333,13.848 21.188,14.2426667 C22.0013333,14.6653333 22.668,15.4853333 22.9213333,16.3413333 C23.6946667,18.9706667 20.908,21.2746667 18.388,20.0973333 L18.3613333,20.0973333 Z" id="Shape" fill="#FFFFFF"></path>
                    <circle id="Oval" fill="#FFFFFF" cx="19.9853333" cy="17.2893333" r="3.32533333"></circle>
                    <path d="M20.304,21.9026667 C20.5346667,21.9333333 20.9933333,21.9933333 21.4173333,22.1293333 C21.844,22.2626667 22.2306667,22.472 22.532,22.6866667 C22.8253333,22.9 23.0386667,23.1213333 23.172,23.3906667 C23.3053333,23.66 23.372,23.98 23.412,24.504 C23.4386667,25.0293333 23.4386667,25.7573333 23.3186667,27.1173333 C23.1986667,28.4733333 22.9586667,30.4613333 22.772,31.7346667 C22.5853333,33.0146667 22.452,33.5746667 22.2786667,33.988 C22.1053333,34.4146667 21.8786667,34.6946667 21.6253333,34.8946667 C21.372,35.0946667 21.0786667,35.2146667 20.7986667,35.2813333 C20.5186667,35.348 20.2653333,35.348 20.0253333,35.348 C19.7853333,35.348 19.5586667,35.348 19.252,35.2813333 C18.9453333,35.2146667 18.5453333,35.0946667 18.252,34.8546667 C17.9453333,34.6146667 17.7453333,34.268 17.5853333,33.8146667 C17.4253333,33.3613333 17.3053333,32.8146667 17.1453333,31.7213333 C16.9853333,30.628 16.772,29.0013333 16.6386667,27.7613333 C16.5053333,26.5213333 16.452,25.668 16.4413333,25.0946667 C16.428,24.5213333 16.4546667,24.2373333 16.5213333,23.9613333 C16.588,23.6946667 16.6946667,23.4413333 16.8413333,23.228 C16.988,23.0146667 17.18,22.828 17.3746667,22.6813333 C17.5653333,22.5346667 17.7613333,22.428 17.996,22.3453333 C18.228,22.252 18.5066667,22.172 18.8493333,22.1053333 C19.196,22.0386667 19.596,21.972 19.8013333,21.9453333 C20.0066667,21.9146667 20.0066667,21.9146667 20.236,21.9453333 L20.304,21.9026667 Z" id="Path" fill="#FFFFFF"></path>
                </g>
            </g>
        </g>
    </g>
</svg>