<?xml version="1.0" encoding="UTF-8"?>
<svg width="40px" height="40px" viewBox="0 0 40 40" version="1.1" xmlns="http://www.w3.org/2000/svg" xmlns:xlink="http://www.w3.org/1999/xlink">
    <!-- Generator: Sketch 64 (93537) - https://sketch.com -->
    <title>spotify</title>
    <desc>Created with Sketch.</desc>
    <g id="Page-1" stroke="none" stroke-width="1" fill="none" fill-rule="evenodd">
        <g id="Desktop" transform="translate(-152.000000, -628.000000)" fill="#1ED760" fill-rule="nonzero">
            <g id="logos" transform="translate(152.000000, 628.000000)">
                <g id="spotify">
                    <path d="M19.9990476,0.065952381 C8.98738095,0.065952381 0.0602380952,8.99285714 0.0602380952,20.0045238 C0.0602380952,31.0166667 8.98738095,39.9428571 19.9990476,39.9428571 C31.0119048,39.9428571 39.9380952,31.0166667 39.9380952,20.0045238 C39.9380952,8.99357143 31.0119048,0.0669047619 19.9988095,0.0669047619 L19.9990476,0.065952381 Z M29.1428571,28.8230952 C28.7857143,29.4088095 28.0190476,29.5945238 27.4333333,29.235 C22.7519048,26.3754762 16.8585714,25.7278571 9.91809524,27.3135714 C9.24928571,27.4659524 8.58261905,27.0469048 8.4302381,26.3778571 C8.27714286,25.7088095 8.69452381,25.0421429 9.365,24.8897619 C16.9602381,23.1538095 23.4752381,23.9016667 28.7309524,27.1135714 C29.3166667,27.4730952 29.502381,28.237381 29.1428571,28.8230952 L29.1428571,28.8230952 Z M31.5833333,23.3933333 C31.1333333,24.1254762 30.1761905,24.3564286 29.4452381,23.9064286 C24.0857143,20.6114286 15.9159524,19.657381 9.57666667,21.5816667 C8.75452381,21.83 7.88619048,21.3666667 7.63666667,20.5459524 C7.38904762,19.7238095 7.85261905,18.8571429 8.67333333,18.6071429 C15.9145238,16.41 24.9166667,17.4742857 31.0714286,21.2564286 C31.802381,21.7064286 32.0333333,22.6635714 31.5833333,23.3935714 L31.5833333,23.3933333 Z M31.7928571,17.74 C25.3666667,13.9230952 14.7642857,13.5721429 8.62880952,15.4342857 C7.64357143,15.7330952 6.60166667,15.1769048 6.30309524,14.1916667 C6.00452381,13.2059524 6.5602381,12.1647619 7.54619048,11.8652381 C14.5892857,9.72714286 26.297619,10.1402381 33.6961905,14.532381 C34.5842857,15.0583333 34.8747619,16.2028571 34.3485714,17.0878571 C33.8247619,17.9740476 32.6771429,18.2661905 31.7938095,17.74 L31.7928571,17.74 Z" id="Shape"></path>
                </g>
            </g>
        </g>
    </g>
</svg>