<?xml version="1.0" encoding="UTF-8"?>
<svg width="91px" height="40px" viewBox="0 0 91 40" version="1.1" xmlns="http://www.w3.org/2000/svg" xmlns:xlink="http://www.w3.org/1999/xlink">
    <title>tune-in</title>
    <g id="Desktop" stroke="none" stroke-width="1" fill="none" fill-rule="evenodd">
        <g id="tune-in" fill="#38B0A9" fill-rule="nonzero">
            <path d="M17.7272727,18.5454545 L17.7272727,20.3636364 C17.7272727,20.5454545 17.5454546,20.7272727 17.3636364,20.7272727 L15.0909091,20.7272727 C15,20.7272727 14.9090909,20.8181818 14.9090909,20.9090909 L14.9090909,30.5454545 C14.9090909,30.7272727 14.7272727,30.9090909 14.5454546,30.9090909 L12.7272727,30.9090909 C12.5454546,30.9090909 12.3636364,30.7272727 12.3636364,30.5454545 L12.3636364,20.9090909 C12.3636364,20.8181818 12.2727273,20.7272727 12.1818182,20.7272727 L9.90909091,20.7272727 C9.72727273,20.7272727 9.54545455,20.5454545 9.54545455,20.3636364 L9.54545455,18.5454545 C9.54545455,18.3636364 9.72727273,18.1818182 9.90909091,18.1818182 L17.3636364,18.1818182 C17.5454546,18.1818182 17.7272727,18.3636364 17.7272727,18.5454545 Z M27.7272727,18.1818182 L25.9090909,18.1818182 C25.7272727,18.1818182 25.5454545,18.3636364 25.5454545,18.5454545 L25.5454545,27.0909091 C25.5454545,27.9090909 24.9090909,28.5454545 23.7727273,28.5454545 C22.6818182,28.5454545 22.0454545,27.9090909 22.0454545,27.0909091 L22.0454545,18.5454545 C22.0454545,18.3636364 21.8636364,18.1818182 21.6818182,18.1818182 L19.8636364,18.1818182 C19.6818182,18.1818182 19.5,18.3636364 19.5,18.5454545 L19.5,27.0909091 C19.5,29.2727273 21.3181818,31.0909091 23.7727273,31.0909091 C26.2727273,31.0909091 28.0909091,29.2727273 28.0909091,27.0909091 L28.0909091,18.5454545 C28.0909091,18.3636364 27.9090909,18.1818182 27.7272727,18.1818182 Z M38,18.1818182 L36.1818182,18.1818182 C36,18.1818182 35.8181818,18.3636364 35.8181818,18.5454545 L35.8181818,25.3636364 C35.8181818,25.4545455 35.6818182,25.5 35.6363636,25.4090909 L33.1363636,18.5 C33.0909091,18.3181818 32.9545455,18.1818182 32.6818182,18.1818182 L30.5,18.1818182 C30.3181818,18.1818182 30.1363636,18.3636364 30.1363636,18.5454545 L30.1363636,30.5454545 C30.1363636,30.7272727 30.3181818,30.9090909 30.5,30.9090909 L32.3181818,30.9090909 C32.5,30.9090909 32.6818182,30.7272727 32.6818182,30.5454545 L32.6818182,24.2727273 C32.6818182,24.1818182 32.8181818,24.1363636 32.8636364,24.2272727 L35.3181818,30.5909091 C35.3636364,30.7272727 35.5,30.9090909 35.8181818,30.9090909 L37.9545455,30.9090909 C38.1363636,30.9090909 38.3181818,30.7272727 38.3181818,30.5454545 L38.3181818,18.5454545 C38.3636364,18.3636364 38.1818182,18.1818182 38,18.1818182 Z M47.4090909,28.3636364 L43.0909091,28.3636364 C43,28.3636364 42.9090909,28.2727273 42.9090909,28.1818182 L42.9090909,26 C42.9090909,25.9090909 43,25.8181818 43.0909091,25.8181818 L47.1818182,25.8181818 C47.3636364,25.8181818 47.5454545,25.6363636 47.5454545,25.4545455 L47.5454545,23.6363636 C47.5454545,23.4545455 47.3636364,23.2727273 47.1818182,23.2727273 L43.0909091,23.2727273 C43,23.2727273 42.9090909,23.1818182 42.9090909,23.0909091 L42.9090909,20.9090909 C42.9090909,20.8181818 43,20.7272727 43.0909091,20.7272727 L47.3181818,20.7272727 C47.5,20.7272727 47.6818182,20.5454545 47.6818182,20.3636364 L47.6818182,18.5454545 C47.6818182,18.3636364 47.5,18.1818182 47.3181818,18.1818182 L40.7272727,18.1818182 C40.5454545,18.1818182 40.3636364,18.3636364 40.3636364,18.5454545 L40.3636364,30.5454545 C40.3636364,30.7272727 40.5454545,30.9090909 40.7272727,30.9090909 L47.4090909,30.9090909 C47.5909091,30.9090909 47.7727273,30.7272727 47.7727273,30.5454545 L47.7727273,28.7272727 C47.7727273,28.5454545 47.5909091,28.3636364 47.4090909,28.3636364 Z M90.9090909,1.36363636 L90.9090909,29.5454545 C90.9090909,30.3181818 90.3181818,30.9090909 89.5454545,30.9090909 L58.1818182,30.9090909 L58.1818182,38.6363636 C58.1818182,39.4090909 57.5909091,40 56.8181818,40 L1.36363636,40 C0.590909091,40 4.90274488e-13,39.4090909 4.90274488e-13,38.6363636 L4.90274488e-13,10.4545455 C4.90274488e-13,9.68181818 0.590909091,9.09090909 1.36363636,9.09090909 L55.4545455,9.09090909 L55.4545455,1.36363636 C55.4545455,0.590909091 56.0454545,0 56.8181818,0 L89.5454545,0 C90.3181818,0 90.9090909,0.590909091 90.9090909,1.36363636 Z M55.4545455,11.8181818 L2.95454545,11.8181818 C2.81818182,11.8181818 2.72727273,11.9090909 2.72727273,12.0454545 L2.72727273,37.0454545 C2.72727273,37.1818182 2.81818182,37.2727273 2.95454545,37.2727273 L55.2272727,37.2727273 C55.3636364,37.2727273 55.4545455,37.1818182 55.4545455,37.0454545 L55.4545455,11.8181818 Z M71.7272727,19.7272727 C71.7272727,19.5454545 71.5454545,19.3636364 71.3636364,19.3636364 L69.8181818,19.3636364 C69.7272727,19.3636364 69.6363636,19.2727273 69.6363636,19.1818182 L69.6363636,11.7272727 C69.6363636,11.6363636 69.7272727,11.5454545 69.8181818,11.5454545 L71.1818182,11.5454545 C71.3636364,11.5454545 71.5454545,11.3636364 71.5454545,11.1818182 L71.5454545,9.45454545 C71.5454545,9.27272727 71.3636364,9.09090909 71.1818182,9.09090909 L65.5454545,9.09090909 C65.3636364,9.09090909 65.1818182,9.27272727 65.1818182,9.45454545 L65.1818182,11.1818182 C65.1818182,11.3636364 65.3636364,11.5454545 65.5454545,11.5454545 L66.9090909,11.5454545 C67,11.5454545 67.0909091,11.6363636 67.0909091,11.7272727 L67.0909091,19.1818182 C67.0909091,19.2727273 67,19.3636364 66.9090909,19.3636364 L65.3636364,19.3636364 C65.1818182,19.3636364 65,19.5454545 65,19.7272727 L65,21.4545455 C65,21.6363636 65.1818182,21.8181818 65.3636364,21.8181818 L71.3636364,21.8181818 C71.5454545,21.8181818 71.7272727,21.6363636 71.7272727,21.4545455 L71.7272727,19.7272727 Z M81.9090909,9.45454545 C81.9090909,9.27272727 81.7272727,9.09090909 81.5454545,9.09090909 L79.7272727,9.09090909 C79.5454545,9.09090909 79.3636364,9.27272727 79.3636364,9.45454545 L79.3636364,16.2727273 C79.3636364,16.3636364 79.2272727,16.4090909 79.1818182,16.3181818 L76.6818182,9.40909091 C76.6363636,9.22727273 76.5,9.09090909 76.2272727,9.09090909 L74.0909091,9.09090909 C73.9090909,9.09090909 73.7272727,9.27272727 73.7272727,9.45454545 L73.7272727,21.4545455 C73.7272727,21.6363636 73.9090909,21.8181818 74.0909091,21.8181818 L75.9090909,21.8181818 C76.0909091,21.8181818 76.2727273,21.6363636 76.2727273,21.4545455 L76.2727273,15.1818182 C76.2727273,15.0909091 76.4090909,15.0454545 76.4545455,15.1363636 L78.9090909,21.5 C78.9545455,21.6363636 79.0909091,21.8181818 79.4090909,21.8181818 L81.5454545,21.8181818 C81.7272727,21.8181818 81.9090909,21.6363636 81.9090909,21.4545455 L81.9090909,9.45454545 L81.9090909,9.45454545 Z" id="Shape"></path>
        </g>
    </g>
</svg>