<?xml version="1.0" encoding="UTF-8"?>
<svg width="462px" height="575px" viewBox="0 0 462 575" version="1.1" xmlns="http://www.w3.org/2000/svg" xmlns:xlink="http://www.w3.org/1999/xlink">
    <title>atoms/illustrations/letters/a-il-letter-u</title>
    <g id="Desktop" stroke="none" stroke-width="1" fill="none" fill-rule="evenodd" opacity="0.800000012">
        <g id="Desktop-works-v2" transform="translate(-151.000000, -1241.000000)" stroke="#957AE4">
            <g id="U" transform="translate(152.000000, 1241.000000)">
                <line x1="2.38341969" y1="290.777202" x2="400.173576" y2="521.82897" id="Path-6" stroke-width="1.19170984" stroke-dasharray="4.766839378238342"></line>
                <line x1="61.9689119" y1="266.943005" x2="460" y2="498.134715" id="Path-6" stroke-width="1.19170984" stroke-dasharray="4.766839378238342"></line>
                <line x1="0" y1="47.6683938" x2="395.647668" y2="277.668394" id="Path-6" stroke-width="1.19170984" stroke-dasharray="4.766839378238342"></line>
                <line x1="115.595855" y1="33.3678756" x2="115.595855" y2="493.366544" id="Path-6" stroke-width="1.19170984" stroke-dasharray="4.766839378238342"></line>
                <line x1="160.880829" y1="2.49577249e-13" x2="160.880829" y2="459.998668" id="Path-6" stroke-width="1.19170984" stroke-dasharray="4.766839378238342"></line>
                <line x1="59.5854922" y1="23.8341969" x2="455.230961" y2="253.832918" id="Path-6" stroke-width="1.19170984" stroke-dasharray="4.766839378238342"></line>
                <path d="M175.21908,94.1450777 C167.482325,94.1450777 160.880829,101.309227 160.880829,113.293978 C160.880829,136.032636 160.880829,153.08663 160.880829,164.455959 C160.880829,182.76414 160.880829,210.226413 160.880829,246.842777 C160.880829,290.7217 188.840404,342.084611 221.658031,361.088083 C228.609662,365.098639 233.823386,368.106557 237.299201,370.111835 M296.752649,402.473199 C304.291805,404.553985 311.358639,404.448915 317.622713,402.380604 C333.636679,397.093013 344.404145,378.974502 344.404145,351.744515 M321.404531,176.407628 C309.351356,169.427053 299.119171,176.882416 299.119171,192.977315 C299.119171,216.846925 299.119171,234.749133 299.119171,246.683938 M299.119171,326.528497 C299.119171,338.224775 292.359612,344.696315 283.626943,339.637306 C270.38451,331.488116 260.452685,325.376224 253.831468,321.301629" id="Shape" stroke-width="1.19170984" stroke-dasharray="4.766839378238342"></path>
                <line x1="160.880829" y1="137.046632" x2="115.595855" y2="168.031088" id="Path-8" stroke-width="1.19170984" stroke-dasharray="4.766839378238342"></line>
                <line x1="160.880829" y1="254.310881" x2="115.595855" y2="285.295337" id="Path-8" stroke-width="1.19170984" stroke-dasharray="4.766839378238342"></line>
                <line x1="299.119171" y1="114.404145" x2="299.119171" y2="574.402813" id="Path-6" stroke-width="1.19170984" stroke-dasharray="4.766839378238342"></line>
                <line x1="344.404145" y1="76.2694301" x2="344.404145" y2="536.268098" id="Path-6" stroke-width="1.19170984" stroke-dasharray="4.766839378238342"></line>
                <line x1="291.968912" y1="342.497409" x2="246.683938" y2="373.481865" id="Path-8" stroke-width="1.19170984" stroke-dasharray="4.766839378238342"></line>
                <line x1="299.119171" y1="216.176166" x2="253.834197" y2="247.160622" id="Path-8" stroke-width="1.19170984" stroke-dasharray="4.766839378238342"></line>
                <path d="M320.684561,401.184676 C334.994088,394.693293 344.404145,377.200319 344.404145,351.744515 L344.404145,218.193333 C344.404145,202.098434 333.452953,183.38582 321.404531,176.407628 C315.737678,173.12568 310.473346,173.034726 306.485671,175.532373 M253.829615,321.300489 C246.680374,316.900956 235.956513,310.301656 221.658031,301.502591 C212.925362,296.445965 206.165803,283.410891 206.165803,271.709845 L206.165803,138.161046 C206.165803,122.063763 195.933618,103.748137 183.88282,96.7723297 C180.802379,94.9890407 177.874059,94.1450777 175.21908,94.1450777 C172.291782,94.1450777 169.527006,95.1706841 167.220834,97.0949571" id="Shape" stroke-width="2.38341969" stroke-linecap="round" stroke-linejoin="round"></path>
                <path d="M115.595855,277.827233 C115.595855,321.706156 143.55543,373.069067 176.373057,392.072539 L238.341969,427.823834 C271.159596,446.827306 299.119171,426.607895 299.119171,382.728971 L299.119171,249.177789 C299.119171,233.08289 288.167978,214.370275 276.119557,207.392084 C264.066382,200.411509 253.834197,207.866872 253.834197,223.961771 L253.834197,357.512953 C253.834197,369.209231 247.074638,375.680771 238.341969,370.621762 L176.373057,332.487047 C167.640388,327.430421 160.880829,314.395347 160.880829,302.694301 L160.880829,169.145502 C160.880829,153.048219 150.648644,134.732593 138.597846,127.756786 C135.517405,125.973497 132.589085,125.129534 129.934106,125.129534 C122.197351,125.129534 115.595855,132.293683 115.595855,144.278434 L115.595855,277.827233 Z" id="Clip-2" stroke-width="2.38341969" stroke-linecap="round" stroke-linejoin="round"></path>
                <line x1="168.031088" y1="96.5284974" x2="122.746114" y2="127.512953" id="Path-8" stroke-width="2.38341969" stroke-linecap="round" stroke-linejoin="round"></line>
                <line x1="206.165803" y1="137.046632" x2="160.880829" y2="168.031088" id="Path-8" stroke-width="2.38341969" stroke-linecap="round" stroke-linejoin="round"></line>
                <line x1="306.26943" y1="175.658031" x2="260.984456" y2="206.642487" id="Path-8" stroke-width="2.38341969" stroke-linecap="round" stroke-linejoin="round"></line>
                <line x1="344.404145" y1="216.176166" x2="299.119171" y2="247.160622" id="Path-8" stroke-width="2.38341969" stroke-linecap="round" stroke-linejoin="round"></line>
                <line x1="344.404145" y1="354.414508" x2="299.119171" y2="385.398964" id="Path-8" stroke-width="2.38341969" stroke-linecap="round" stroke-linejoin="round"></line>
                <line x1="210.932642" y1="290.062176" x2="165.647668" y2="321.046632" id="Path-8" stroke-width="2.38341969" stroke-linecap="round" stroke-linejoin="round"></line>
                <line x1="321.122955" y1="400.95187" x2="284.340706" y2="426.118671" id="Path-8" stroke-width="2.38341969" stroke-linecap="round" stroke-linejoin="round"></line>
            </g>
        </g>
    </g>
</svg>
